<svg width="32" height="32" viewBox="0 0 32 32" fill="none" xmlns="http://www.w3.org/2000/svg">
<rect width="32" height="32" rx="16" fill="#00953B"/>
<path d="M13.379 16.3912H14.5942V21.8065C14.5942 21.9134 14.6742 22 14.773 22H16.8334C16.9322 22 17.0122 21.9134 17.0122 21.8065V16.4167H18.4092C18.5 16.4167 18.5764 16.3429 18.5868 16.2453L18.799 14.2516C18.8048 14.1968 18.7888 14.1419 18.7549 14.1007C18.7209 14.0595 18.6723 14.0359 18.6214 14.0359H17.0123V12.7862C17.0123 12.4095 17.1997 12.2185 17.5693 12.2185C17.622 12.2185 18.6214 12.2185 18.6214 12.2185C18.7202 12.2185 18.8002 12.1318 18.8002 12.0249V10.195C18.8002 10.0881 18.7202 10.0014 18.6214 10.0014H17.1715C17.1612 10.0009 17.1385 10 17.1051 10C16.8535 10 15.979 10.0535 15.2882 10.7413C14.5229 11.5036 14.6293 12.4163 14.6547 12.5745V14.0359H13.379C13.2802 14.0359 13.2002 14.1225 13.2002 14.2295V16.1976C13.2002 16.3045 13.2802 16.3912 13.379 16.3912Z" fill="white"/>
</svg>
