<svg width="32" height="32" viewBox="0 0 32 32" fill="none" xmlns="http://www.w3.org/2000/svg">
<rect width="32" height="32" rx="16" fill="#00953B"/>
<path d="M16 10C17.6302 10 17.8336 10.006 18.4732 10.036C19.1122 10.066 19.5472 10.1662 19.93 10.315C20.326 10.4674 20.6596 10.6738 20.9932 11.0068C21.2983 11.3067 21.5344 11.6696 21.685 12.07C21.8332 12.4522 21.934 12.8878 21.964 13.5268C21.9922 14.1664 22 14.3698 22 16C22 17.6302 21.994 17.8336 21.964 18.4732C21.934 19.1122 21.8332 19.5472 21.685 19.93C21.5348 20.3307 21.2987 20.6936 20.9932 20.9932C20.6932 21.2982 20.3304 21.5343 19.93 21.685C19.5478 21.8332 19.1122 21.934 18.4732 21.964C17.8336 21.9922 17.6302 22 16 22C14.3698 22 14.1664 21.994 13.5268 21.964C12.8878 21.934 12.4528 21.8332 12.07 21.685C11.6694 21.5347 11.3065 21.2986 11.0068 20.9932C10.7016 20.6933 10.4656 20.3305 10.315 19.93C10.1662 19.5478 10.066 19.1122 10.036 18.4732C10.0078 17.8336 10 17.6302 10 16C10 14.3698 10.006 14.1664 10.036 13.5268C10.066 12.8872 10.1662 12.4528 10.315 12.07C10.4651 11.6693 10.7013 11.3064 11.0068 11.0068C11.3066 10.7015 11.6695 10.4654 12.07 10.315C12.4528 10.1662 12.8872 10.066 13.5268 10.036C14.1664 10.0078 14.3698 10 16 10ZM16 13C15.2044 13 14.4413 13.3161 13.8787 13.8787C13.3161 14.4413 13 15.2044 13 16C13 16.7956 13.3161 17.5587 13.8787 18.1213C14.4413 18.6839 15.2044 19 16 19C16.7956 19 17.5587 18.6839 18.1213 18.1213C18.6839 17.5587 19 16.7956 19 16C19 15.2044 18.6839 14.4413 18.1213 13.8787C17.5587 13.3161 16.7956 13 16 13ZM19.9 12.85C19.9 12.6511 19.821 12.4603 19.6803 12.3197C19.5397 12.179 19.3489 12.1 19.15 12.1C18.9511 12.1 18.7603 12.179 18.6197 12.3197C18.479 12.4603 18.4 12.6511 18.4 12.85C18.4 13.0489 18.479 13.2397 18.6197 13.3803C18.7603 13.521 18.9511 13.6 19.15 13.6C19.3489 13.6 19.5397 13.521 19.6803 13.3803C19.821 13.2397 19.9 13.0489 19.9 12.85ZM16 14.2C16.4774 14.2 16.9352 14.3896 17.2728 14.7272C17.6104 15.0648 17.8 15.5226 17.8 16C17.8 16.4774 17.6104 16.9352 17.2728 17.2728C16.9352 17.6104 16.4774 17.8 16 17.8C15.5226 17.8 15.0648 17.6104 14.7272 17.2728C14.3896 16.9352 14.2 16.4774 14.2 16C14.2 15.5226 14.3896 15.0648 14.7272 14.7272C15.0648 14.3896 15.5226 14.2 16 14.2Z" fill="white"/>
</svg>
