<svg width="32" height="32" viewBox="0 0 32 32" fill="none" xmlns="http://www.w3.org/2000/svg">
<path d="M0 16C0 24.8366 7.16344 32 16 32C24.8366 32 32 24.8366 32 16C32 7.16344 24.8366 0 16 0C7.16344 0 0 7.16344 0 16Z" fill="#00953B"/>
<path d="M12.15 22H9.175V12.6375H12.15V22ZM10.6625 11.325C9.7 11.325 9 10.625 9 9.6625C9 8.7 9.7875 8 10.6625 8C11.625 8 12.325 8.7 12.325 9.6625C12.325 10.625 11.625 11.325 10.6625 11.325ZM23 22H20.025V16.925C20.025 15.4375 19.4125 15 18.5375 15C17.6625 15 16.7875 15.7 16.7875 17.0125V22H13.8125V12.6375H16.6125V13.95C16.875 13.3375 17.925 12.375 19.4125 12.375C21.075 12.375 22.825 13.3375 22.825 16.225V22H23Z" fill="white"/>
</svg>
