 <svg
              className="m-auto overflow-visible w-[100%] text-center lg:w-full lg:h-[122px]"
              viewBox="0 0 562 122"
              fill="none"
              xmlns="http://www.w3.org/2000/svg"
            >
              <path
                id="b-be"
                className="be-near"
                d="M0.0795116 18.3741C0.0841342 18.023 0.22824 17.6872 0.481609 17.4372C0.734979 17.1872 1.07793 17.0424 1.43855 17.0332H3.2751C3.63748 17.0423 3.98245 17.1864 4.23878 17.436C4.49511 17.6855 4.64321 18.0213 4.65251 18.3741V50.9317C8.44753 48.222 13.0409 46.7795 17.7471 46.8195C29.6662 46.8195 38.4266 56.1702 38.4266 68.2743C38.4266 80.3783 29.8499 89.9972 18.9776 89.9972C16.2353 90.0038 13.52 89.4703 10.995 88.4286C8.47009 87.387 6.1877 85.8589 4.2852 83.9362L3.91789 87.6372C3.92135 87.8211 3.88483 88.0037 3.81071 88.173C3.73659 88.3422 3.62655 88.4943 3.48781 88.6192C3.34908 88.7442 3.18478 88.8391 3.00569 88.8979C2.8266 88.9567 2.63677 88.9779 2.44866 88.9602H1.38346C1.0245 88.9556 0.681574 88.8147 0.427727 88.5676C0.173881 88.3205 0.0291691 87.9866 0.0244141 87.6372L0.0795116 18.3741ZM18.6102 85.8851C27.4808 85.8851 33.9087 77.9647 33.9087 68.4173C33.9087 58.87 26.9482 51.2356 17.2328 51.2356C12.6943 51.2389 8.29601 52.7672 4.78106 55.5623V78.5904C6.29067 80.8211 8.34296 82.6542 10.7556 83.9268C13.1681 85.1994 15.8663 85.8721 18.6102 85.8851Z"
                fill="#fff"
              ></path>
              <path
                id="e-be"
                className="be-near"
                d="M66.78 46.4835C69.3117 46.4098 71.8317 46.8513 74.1833 47.7804C76.5348 48.7095 78.6677 50.1065 80.4492 51.8843C82.2308 53.6622 83.6229 55.783 84.539 58.1148C85.4551 60.4467 85.8756 62.9397 85.7744 65.4389C85.7744 67.0966 85.7744 69.493 84.187 69.493H50.7232C51.1429 78.3941 57.6568 85.8538 67.1449 85.8538C71.5677 85.8101 75.8785 84.4747 79.5342 82.0158C80.4647 81.4032 80.8844 81.2951 81.3588 82.0158L82.4171 83.4753C82.7273 83.8898 82.6178 84.5024 81.9974 85.133C79.8991 87.2052 73.2757 89.998 66.78 89.998C54.0076 89.998 46.1069 80.25 46.1069 68.1417C46.1069 56.3216 53.9893 46.4835 66.78 46.4835ZM81.1581 65.7632C81.1581 57.6729 76.2133 50.6277 66.78 50.6277C64.7258 50.5847 62.6831 50.9424 60.7691 51.6802C58.8551 52.4181 57.1073 53.5216 55.6259 54.9276C54.1445 56.3336 52.9586 58.0145 52.1361 59.8738C51.3136 61.7332 50.8707 63.7345 50.8327 65.7632H81.1581Z"
                fill="#fff"
              ></path>
              <path
                id="n-near"
                className="be-near"
                d="M117.8 48.9307C117.805 48.7424 117.847 48.557 117.924 48.3851C118.001 48.2132 118.112 48.0584 118.249 47.9296C118.386 47.8008 118.548 47.7005 118.725 47.6347C118.901 47.5689 119.089 47.5389 119.277 47.5463H120.422C120.729 47.5251 121.032 47.6224 121.269 47.8182C121.506 48.014 121.659 48.2933 121.696 48.5985L122.121 53.158C126.288 48.9702 131.926 46.5728 137.834 46.4756C149.706 46.4756 154.913 54.0071 154.913 65.8952V88.6191C154.908 88.9831 154.76 89.3305 154.501 89.5862C154.242 89.8418 153.892 89.9852 153.528 89.9851H151.682C151.319 89.9805 150.972 89.8356 150.714 89.581C150.456 89.3263 150.307 88.9816 150.297 88.6191V65.8952C150.297 56.13 145.736 51.1274 137.668 51.1274C128.971 51.1274 122.896 57.9206 122.49 58.5113V88.6191C122.515 88.806 122.496 88.9961 122.435 89.1744C122.374 89.3528 122.272 89.5145 122.138 89.6469C122.004 89.7793 121.841 89.8788 121.661 89.9375C121.482 89.9962 121.292 90.0125 121.105 89.9851H118.963C118.795 89.9787 118.629 89.9374 118.478 89.8638C118.326 89.7902 118.191 89.6858 118.082 89.5574C117.972 89.429 117.891 89.2793 117.842 89.1178C117.794 88.9563 117.78 88.7865 117.8 88.6191V48.9307Z"
                fill="#fff"
              ></path>
              <path
                id="e-near"
                className="be-near"
                d="M185.872 46.483C188.399 46.4118 190.913 46.8551 193.259 47.7854C195.605 48.7157 197.733 50.113 199.51 51.8906C201.287 53.6683 202.676 55.7882 203.59 58.1188C204.503 60.4494 204.923 62.9409 204.822 65.4386C204.822 67.0963 204.822 69.4928 203.255 69.4928H169.782C170.202 78.394 176.707 85.8537 186.182 85.8537C190.593 85.8097 194.891 84.4741 198.535 82.0158C199.483 81.4031 199.902 81.295 200.358 82.0158L201.396 83.4753C201.724 83.8897 201.615 84.5023 200.977 85.133C198.882 87.2051 192.286 89.998 185.799 89.998C173.044 89.998 165.154 80.2499 165.154 68.1414C165.227 56.3212 173.081 46.483 185.872 46.483ZM200.212 65.7629C200.212 57.6726 195.292 50.6273 185.872 50.6273C183.82 50.5843 181.781 50.9419 179.869 51.6798C177.958 52.4176 176.212 53.5212 174.733 54.9272C173.254 56.3332 172.069 58.0141 171.248 59.8735C170.427 61.7329 169.984 63.7342 169.946 65.7629H200.212Z"
                fill="#fff"
              ></path>
              <path
                id="a-near"
                className="be-near"
                d="M229.236 62.2771C232.912 62.3245 236.557 62.9313 240.038 64.0752C240.038 54.9765 239.071 50.4272 230.63 50.4272C226.199 50.4762 221.829 51.4258 217.802 53.2143C217.643 53.2901 217.467 53.3281 217.29 53.3252C217.113 53.3224 216.939 53.2787 216.783 53.1978C216.626 53.117 216.492 53.0013 216.392 52.8603C216.291 52.7193 216.226 52.5571 216.203 52.3872L215.664 51.1464C215.348 50.2114 215.775 49.7978 216.314 49.6C220.851 47.4095 225.878 46.3407 230.946 46.4892C243.96 46.4892 244.518 54.0415 244.518 64.5787V87.6132C244.513 87.9646 244.367 88.3004 244.11 88.5489C243.853 88.7975 243.506 88.9392 243.142 88.9438H241.86C241.097 88.9438 240.781 88.5302 240.577 87.811L240.149 84.0888C236.121 87.774 230.819 89.8766 225.276 89.9867C223.396 90.0624 221.522 89.7568 219.772 89.0895C218.022 88.4223 216.436 87.4083 215.115 86.1127C213.795 84.817 212.77 83.2685 212.105 81.5666C211.441 79.8647 211.152 78.0471 211.258 76.2308C211.22 68.3009 217.969 62.2771 229.236 62.2771ZM225.815 85.9589C228.517 85.9044 231.177 85.3054 233.626 84.2C236.075 83.0947 238.259 81.5073 240.038 79.5394V68.175C236.625 66.7547 232.951 66.0147 229.236 65.9993C221.111 65.9993 215.664 70.0271 215.664 76.1409C215.592 77.4439 215.804 78.7469 216.285 79.9659C216.766 81.1848 217.506 82.2927 218.458 83.2178C219.409 84.143 220.55 84.865 221.808 85.3371C223.065 85.8092 224.412 86.021 225.759 85.9589H225.815Z"
                fill="#fff"
              ></path>
              <path
                id="r-near"
                className="be-near"
                d="M258.625 48.9317C258.625 48.5677 258.762 48.2183 259.006 47.9592C259.25 47.7001 259.581 47.5521 259.929 47.5472H261.145C261.451 47.5416 261.747 47.659 261.973 47.8753C262.199 48.0916 262.338 48.3903 262.36 48.7101L262.766 53.0665C264.23 50.9976 266.142 49.3216 268.344 48.1761C270.546 47.0306 272.976 46.4482 275.434 46.4766C277.584 46.4743 279.713 46.9068 281.707 47.7503C282.623 48.0825 283.134 48.8209 282.834 49.5962L282.024 51.719C281.707 52.4574 281.107 52.5681 280.403 52.2359C278.745 51.4294 276.944 50.9955 275.117 50.9622C272.671 51.0032 270.278 51.7043 268.166 52.9977C266.055 54.2911 264.298 56.1332 263.065 58.3459V88.6191C263.089 88.806 263.071 88.9961 263.012 89.1744C262.954 89.3528 262.857 89.5145 262.729 89.6469C262.601 89.7793 262.445 89.8788 262.274 89.9375C262.103 89.9962 261.922 90.0125 261.744 89.9851H259.717C259.557 89.9787 259.399 89.9374 259.254 89.8638C259.109 89.7902 258.98 89.6859 258.876 89.5575C258.772 89.4291 258.694 89.2793 258.648 89.1178C258.601 88.9563 258.588 88.7865 258.607 88.6191L258.625 48.9317Z"
                fill="#fff"
              ></path>
              <path
                id="white-dot"
                className="be-near"
                d="M291.938 82.3178C292.439 82.3039 292.939 82.3938 293.405 82.5821C293.871 82.7703 294.294 83.0529 294.648 83.4125C295.002 83.772 295.28 84.201 295.464 84.673C295.648 85.145 295.735 85.6501 295.719 86.1573C295.726 86.6619 295.633 87.1628 295.445 87.6305C295.258 88.0983 294.98 88.5235 294.627 88.8811C294.275 89.2388 293.856 89.5217 293.394 89.7132C292.932 89.9048 292.437 90.0012 291.938 89.9967C290.921 89.997 289.944 89.5957 289.216 88.8784C288.488 88.1612 288.066 87.1846 288.041 86.1573C288.045 85.6458 288.149 85.1403 288.348 84.6699C288.546 84.1995 288.835 83.7735 289.198 83.4165C289.56 83.0596 289.989 82.7787 290.459 82.5901C290.929 82.4015 291.432 82.309 291.938 82.3178Z"
                fill="#fff"
              ></path>
              <path
                id="g-go"
                className="go-far"
                d="M333.484 75.4325C331.309 72.3484 330.135 68.6749 330.119 64.9062C330.119 55.163 336.958 46.476 347.893 46.476H365.667C365.934 46.4705 366.2 46.5201 366.446 46.6217C366.693 46.7232 366.917 46.8745 367.102 47.066C367.288 47.2576 367.431 47.4852 367.524 47.7347C367.617 47.9841 367.657 48.2501 367.642 48.5157V50.3369C367.642 51.0653 367.221 52.0123 366.49 52.158L360.821 53.3054C360.821 53.3054 365.539 56.7656 365.539 65.0337C365.619 67.3733 365.219 69.7046 364.364 71.8849C363.508 74.0653 362.215 76.0489 360.563 77.7144C358.911 79.3799 356.936 80.6923 354.757 81.5713C352.579 82.4503 350.243 82.8774 347.893 82.8265C344.367 83.0293 340.866 82.1179 337.89 80.2222C337.89 80.2222 333.264 82.3166 333.264 86.5052C333.27 87.2326 333.429 87.9507 333.731 88.613C334.033 89.2752 334.472 89.8667 335.018 90.3493C335.565 90.8318 336.207 91.1945 336.904 91.4139C337.6 91.6333 338.335 91.7044 339.061 91.6227H354.183C363.016 91.6227 369.964 95.9207 369.964 105.027C369.964 113.713 360.913 122 348.204 122C334.105 122 328.089 114.46 328.089 107.54C328.107 105.51 328.675 103.522 329.734 101.788C330.793 100.053 332.304 98.6365 334.105 97.6872V97.3594C331.888 96.8082 329.923 95.5251 328.532 93.7194C327.14 91.9136 326.404 89.6917 326.443 87.4158C326.553 84.9996 327.252 82.6463 328.478 80.5586C329.705 78.471 331.422 76.7118 333.484 75.4325ZM348.112 115.116C355.043 115.116 362.193 111.237 362.193 105.172C362.193 103.806 361.571 98.3611 354.202 98.3611H342.535C342.535 98.3611 335.495 100.182 335.495 106.429C335.477 111.455 340.944 115.116 348.094 115.116H348.112ZM358.517 64.7605C358.517 57.8401 354.311 53.0322 348.003 53.0322C341.694 53.0322 337.031 57.8401 337.031 64.7605C337.031 71.6809 341.657 76.4888 348.003 76.4888C354.348 76.4888 358.499 71.6627 358.499 64.7605H358.517Z"
                fill="#00A94F"
              ></path>
              <g opacity="0.9">
                <path
                  id="o-go"
                  className="go-far"
                  d="M377.125 69.6431C377.125 53.1793 386.303 43.5938 399.518 43.5938C412.733 43.5938 421.928 53.3074 421.928 69.6431C421.928 85.9789 412.751 96.0767 399.518 96.0767C386.284 96.0767 377.125 86.0155 377.125 69.6431Z"
                  fill="#00A94F"
                ></path>
              </g>
              <path
                id="f-far"
                className="go-far"
                d="M451.158 54.4507H444.897C444.639 54.4507 444.383 54.399 444.144 54.2984C443.905 54.1978 443.689 54.0504 443.506 53.8646C443.323 53.6788 443.178 53.4582 443.079 53.2154C442.98 52.9726 442.93 52.7124 442.93 52.4496V50.1574C442.922 49.8934 442.968 49.6306 443.064 49.3853C443.161 49.1401 443.306 48.9176 443.49 48.7317C443.675 48.5457 443.895 48.4004 444.137 48.3045C444.379 48.2087 444.638 48.1644 444.897 48.1745H451.158V33.5299C451.158 21.3958 458.062 15.7562 466.899 15.7562C471.028 15.6862 475.032 17.1994 478.115 19.995C478.446 20.2889 478.668 20.6898 478.743 21.1305C478.818 21.5711 478.741 22.0245 478.526 22.4145L476.88 25.1251C476.272 26.1621 475.235 26.0711 474.215 25.2343C472.07 23.4732 469.451 22.414 466.702 22.1962C461.98 22.1962 458.17 25.4344 458.17 33.4935V48.1381H470.101C470.359 48.1306 470.616 48.1767 470.856 48.2737C471.096 48.3707 471.314 48.5165 471.496 48.7021C471.679 48.8878 471.822 49.1094 471.917 49.3534C472.013 49.5974 472.058 49.8586 472.051 50.121V52.4132C472.053 52.6752 472.004 52.935 471.907 53.1777C471.81 53.4203 471.667 53.6411 471.486 53.8272C471.305 54.0132 471.089 54.1609 470.851 54.2617C470.613 54.3625 470.358 54.4144 470.101 54.4144H458.17V88.0151C458.152 88.5352 457.941 89.0292 457.579 89.3972C457.217 89.7652 456.731 89.9799 456.22 89.998H453.036C452.521 89.9845 452.031 89.7717 451.666 89.4032C451.3 89.0348 451.086 88.5383 451.068 88.0151L451.158 54.4507Z"
                fill="#00A94F"
              ></path>
              <path
                id="a-far"
                className="go-far"
                d="M492.733 62.6346C495.703 62.6968 498.652 63.151 501.504 63.9856C501.594 56.3116 500.679 52.7988 494.795 52.7988C490.57 52.8307 486.382 53.5987 482.418 55.0686C481.396 55.4829 480.768 55.0686 480.463 54.0418L479.638 51.4478C479.225 50.2048 479.835 49.6464 480.768 49.178C485.338 47.3738 490.208 46.4569 495.118 46.4759C505.648 46.4759 508.213 51.8801 508.213 63.9856V86.9716C508.2 87.4881 507.989 87.9796 507.625 88.345C507.262 88.7103 506.772 88.9215 506.258 88.9352H504.303C503.173 88.9352 502.85 88.3227 502.509 87.386L501.684 84.5938C500.016 86.3024 498.026 87.6602 495.83 88.5881C493.634 89.516 491.276 89.9953 488.894 89.998C481.718 89.998 476.211 84.7199 476.211 76.4334C476.265 68.5432 482.113 62.6346 492.733 62.6346ZM490.042 83.7651C492.244 83.7174 494.408 83.1709 496.371 82.1666C498.334 81.1622 500.046 79.7259 501.379 77.9646V69.7862C498.666 68.5415 495.693 67.9729 492.715 68.1289C486.939 68.1289 482.813 71.0291 482.813 76.4154C482.759 77.387 482.909 78.359 483.252 79.2691C483.595 80.1791 484.124 81.0068 484.805 81.6991C485.486 82.3914 486.304 82.9329 487.206 83.2888C488.108 83.6446 489.074 83.8068 490.042 83.7651Z"
                fill="#00A94F"
              ></path>
              <path
                id="r-far"
                className="go-far"
                d="M521.05 49.5728C521.068 49.0511 521.28 48.555 521.644 48.1825C522.008 47.81 522.498 47.5882 523.018 47.5607H525.022C525.452 47.552 525.871 47.695 526.207 47.9649C526.543 48.2347 526.774 48.6142 526.86 49.0375L527.706 52.1201C529.247 50.2657 531.193 48.7931 533.394 47.8166C535.594 46.8402 537.989 46.3863 540.392 46.4901C543.573 46.4901 548.849 47.0254 547.746 49.9973L546.459 53.5968C545.944 54.9813 544.988 54.9813 543.94 54.5567C542.629 54.0089 541.224 53.7206 539.804 53.7076C537.559 53.6569 535.338 54.1668 533.339 55.1914C531.339 56.216 529.625 57.7232 528.349 59.5776V87.986C528.331 88.5168 528.111 89.0206 527.736 89.3945C527.36 89.7684 526.856 89.9842 526.327 89.998H523.018C522.492 89.9796 521.993 89.7617 521.621 89.3883C521.249 89.0149 521.032 88.5137 521.014 87.986L521.05 49.5728Z"
                fill="#00A94F"
              ></path>
              <path
                id="green-dot"
                className="go-far"
                d="M556.215 78.477C556.974 78.4676 557.727 78.6101 558.43 78.8963C559.133 79.1824 559.772 79.6063 560.309 80.1431C560.845 80.6798 561.269 81.3186 561.556 82.0217C561.842 82.7248 561.984 83.4781 561.975 84.2371C561.975 85.7648 561.368 87.2299 560.288 88.3101C559.207 89.3903 557.742 89.9972 556.215 89.9972C554.693 89.979 553.238 89.3663 552.162 88.29C551.086 87.2137 550.473 85.7591 550.455 84.2371C550.455 82.7094 551.061 81.2443 552.142 80.1641C553.222 79.0839 554.687 78.477 556.215 78.477Z"
                fill="#00A94F"
              ></path>
              <path
                id="arrow"
                d="M407.567 55.077L410.927 83.7855C410.932 84.0259 410.857 84.2608 410.715 84.4525C410.573 84.6442 410.372 84.7814 410.144 84.8422C409.916 84.903 409.675 84.8837 409.459 84.7875C409.243 84.6913 409.065 84.5237 408.954 84.3118L400.19 70.139C400.075 69.952 399.91 69.8018 399.715 69.7055C399.52 69.6093 399.303 69.5708 399.088 69.5946L382.768 71.5908C381.666 71.7359 380.991 70.3023 381.933 69.7761L405.879 54.3149C406.034 54.2217 406.209 54.1677 406.389 54.1572C406.569 54.1467 406.749 54.18 406.914 54.2545C407.079 54.3289 407.224 54.4423 407.338 54.5853C407.452 54.7283 407.53 54.8969 407.567 55.077Z"
                fill="#fff"
              ></path>
              <g id="star-pin">
                <path
                  d="M235.557 10.6338H229.193L227.227 13.2525L225.261 10.6338H218.917L224.055 14.0541L222.089 19.5943L227.227 16.174V13.2525V16.174L232.365 19.5943L230.4 14.0541L235.557 10.6338Z"
                  fill="#006937"
                ></path>
                <path
                  d="M227.237 5.5127L225.317 10.7226L227.237 13.1931L229.157 10.7226L227.237 5.5127Z"
                  fill="#006937"
                ></path>
                <path
                  d="M227.216 34.9545C226.815 34.9547 226.419 34.8482 226.067 34.645C225.716 34.4418 225.419 34.1484 225.205 33.7924L217.036 20.047C216.949 19.9199 216.863 19.7565 216.776 19.6112L216.672 19.4115C216.348 18.8332 216.076 18.2254 215.857 17.5957C215.339 16.1689 215.075 14.6551 215.076 13.1289C215.084 10.5284 215.849 7.99221 217.268 5.85785C218.687 3.72348 220.693 2.09219 223.019 1.18111C225.998 0.0284235 229.289 0.14324 232.187 1.50095C235.085 2.85866 237.36 5.35119 238.524 8.44421C239.208 10.2292 239.497 12.1535 239.367 14.0721C239.238 15.9907 238.695 17.8536 237.778 19.5204L229.176 33.7924C228.969 34.143 228.681 34.4333 228.338 34.6364C227.996 34.8395 227.61 34.9489 227.216 34.9545ZM227.216 2.81531C225.922 2.81291 224.64 3.07805 223.444 3.59551C222.248 4.11297 221.161 4.87257 220.246 5.83076C219.33 6.78894 218.605 7.92685 218.111 9.17923C217.616 10.4316 217.363 11.7738 217.365 13.1289C217.368 14.3701 217.586 15.6004 218.007 16.7605C218.19 17.2885 218.416 17.7988 218.684 18.2857L218.978 18.776L227.164 32.5214L231.292 25.7667L235.697 18.3946C236.589 16.8029 237.061 14.9923 237.067 13.1471C237.068 11.834 236.826 10.5331 236.356 9.31578C235.634 7.39548 234.375 5.74786 232.745 4.58817C231.114 3.42847 229.188 2.81061 227.216 2.81531Z"
                  fill="#00A94F"
                ></path>
                <path
                  d="M225.317 10.7179L227.877 13.1931V5.5127L225.317 10.7179Z"
                  fill="white"
                ></path>
                <path
                  d="M227.877 5.5127V13.1931L229.157 10.7179L227.877 5.5127Z"
                  fill="#006937"
                ></path>
                <path
                  d="M229.384 10.6338L227.877 13.1939L234.277 10.6338H229.384Z"
                  fill="white"
                ></path>
                <path
                  d="M227.877 13.5628L230.324 14.474L234.277 10.6338L227.877 13.5628Z"
                  fill="#006937"
                ></path>
                <path
                  d="M227.877 13.1934V16.1504L231.717 19.5937L227.877 13.1934Z"
                  fill="#006937"
                ></path>
                <path
                  d="M230.253 14.0104L227.877 13.1934L231.717 19.5937L230.253 14.0104Z"
                  fill="white"
                ></path>
                <path
                  d="M222.757 19.5937L227.877 16.1399V13.1934L222.757 19.5937Z"
                  fill="white"
                ></path>
                <path
                  d="M224.708 14.0129L222.757 19.5937L227.877 13.1934L224.708 14.0129Z"
                  fill="#006937"
                ></path>
                <path
                  d="M226.064 10.6338H220.196L227.877 13.1939L226.064 10.6338Z"
                  fill="#006937"
                ></path>
                <path
                  d="M220.196 10.6338L224.933 14.474L227.877 13.5628L220.196 10.6338Z"
                  fill="white"
                ></path>
              </g>
            </svg>