<svg width="32" height="32" viewBox="0 0 32 32" fill="none" xmlns="http://www.w3.org/2000/svg">
<rect width="32" height="32" rx="16" fill="#00953B"/>
<path d="M20.2077 11.8063C19.4664 11.3146 18.9314 10.5278 18.7645 9.61072C18.7285 9.41258 18.7087 9.20865 18.7087 9H16.343L16.3392 18.646C16.2994 19.7261 15.4256 20.5931 14.3543 20.5931C14.0214 20.5931 13.7079 20.5084 13.4319 20.3606C12.7989 20.0217 12.3657 19.3467 12.3657 18.5699C12.3657 17.4543 13.2579 16.5466 14.3543 16.5466C14.559 16.5466 14.7554 16.5809 14.9411 16.6401V14.183C14.7489 14.1563 14.5536 14.1397 14.3543 14.1397C11.9533 14.1397 10 16.1271 10 18.5699C10 20.0687 10.736 21.3951 11.8589 22.1971C12.5662 22.7023 13.4265 23 14.3543 23C16.7554 23 18.7087 21.0127 18.7087 18.5699V13.6786C19.6366 14.3561 20.7733 14.7554 22 14.7554V12.3485C21.3392 12.3485 20.7238 12.1487 20.2077 11.8063Z" fill="white"/>
</svg>
