<svg width="32" height="32" viewBox="0 0 32 32" fill="none" xmlns="http://www.w3.org/2000/svg">
<rect width="32" height="32" rx="16" fill="#00953B"/>
<path d="M22 12.5656C21.5587 12.7461 21.0846 12.868 20.5863 12.9231C21.0947 12.6422 21.4847 12.1964 21.6686 11.6658C21.193 11.9262 20.6661 12.1155 20.1053 12.2169C19.6561 11.776 19.0166 11.5 18.3085 11.5C16.9492 11.5 15.8467 12.5173 15.8467 13.7727C15.8467 13.9502 15.8689 14.1228 15.9102 14.2896C13.8633 14.1945 12.05 13.2899 10.8355 11.9155C10.6242 12.252 10.5026 12.6422 10.5026 13.0577C10.5026 13.8458 10.9375 14.5418 11.5976 14.949C11.1939 14.9368 10.8144 14.8349 10.4825 14.6647V14.6939C10.4825 15.7947 11.3307 16.713 12.4575 16.9217C12.2503 16.9734 12.0331 17.0008 11.809 17.0008C11.6505 17.0008 11.4956 16.9871 11.3455 16.9608C11.6589 17.863 12.568 18.5204 13.6456 18.538C12.8026 19.1476 11.7409 19.5109 10.5877 19.5109C10.389 19.5109 10.1929 19.5002 10 19.4792C11.0898 20.1245 12.3835 20.5 13.7735 20.5C18.3026 20.5 20.7786 17.0383 20.7786 14.036C20.7786 13.9385 20.776 13.84 20.7712 13.7424C21.2522 13.4215 21.6697 13.0221 21.9989 12.5671L22 12.5656Z" fill="white"/>
</svg>
