<svg width="32" height="32" viewBox="0 0 32 32" fill="none" xmlns="http://www.w3.org/2000/svg">
<rect width="32" height="32" rx="16" fill="#00953B"/>
<path d="M21.8781 13.7261C21.8781 13.7261 21.7607 12.942 21.4 12.5975C20.9429 12.1443 20.4321 12.1422 20.1978 12.1155C18.5196 12 16 12 16 12H15.9955C15.9955 12 13.4759 12 11.7977 12.1155C11.5634 12.1422 11.0526 12.1443 10.5955 12.5975C10.2344 12.942 10.1196 13.7261 10.1196 13.7261C10.1196 13.7261 10 14.6461 10 15.5678V16.4298C10 17.3493 10.1196 18.2714 10.1196 18.2714C10.1196 18.2714 10.237 19.0555 10.5955 19.4C11.0526 19.8532 11.6526 19.8376 11.9196 19.8866C12.8807 19.9733 16 20 16 20C16 20 18.5219 19.9957 20.2 19.8823C20.4344 19.8557 20.9455 19.8535 21.4023 19.4003C21.763 19.0559 21.8804 18.2717 21.8804 18.2717C21.8804 18.2717 22 17.3522 22 16.4301V15.5681C21.9978 14.6482 21.8781 13.7265 21.8781 13.7265V13.7261ZM14.758 17.4762V14.2792L17.9995 15.8834L14.758 17.4762Z" fill="white"/>
</svg>
